<?xml version="1.0" encoding="utf-8"?>
<!-- Generator: Adobe Illustrator 22.0.0, SVG Export Plug-In . SVG Version: 6.00 Build 0)  -->
<svg version="1.1" id="Слой_1" xmlns="http://www.w3.org/2000/svg" xmlns:xlink="http://www.w3.org/1999/xlink" x="0px" y="0px"
	 viewBox="0 0 310.6 86" style="enable-background:new 0 0 310.6 86;" xml:space="preserve">
<style type="text/css">
	.st0{fill:#FFFFFF;}
	.st1{fill:#DE0041;}
</style>
<g>
	<path class="st0" d="M19.3,18.1h-8.8l0.8-4.4h22.6L33,18.1h-8.8l-4.4,23.6h-4.9L19.3,18.1z"/>
	<path class="st0" d="M54.1,27.3c0,0.8-0.1,1.6-0.3,2.5l-2.2,11.8h-4.7L49,30c0.1-0.6,0.2-1.2,0.2-1.6c0-2.5-1.3-3.9-4.1-3.9
		c-3.5,0-5.9,2-6.6,6.2l-2.1,11.1h-4.7L37.2,12H42l-2,10.4c1.8-1.6,4.1-2.4,6.7-2.4C51.1,20.1,54.1,22.6,54.1,27.3z"/>
	<path class="st0" d="M78.6,32.5H62.5c0.1,3.4,1.9,5.2,5.9,5.2c2.3,0,4.4-0.8,5.9-2.2l2,3.5c-2.1,2-5.2,3-8.3,3
		c-6.1,0-10-3.7-10-9.4c0-7.2,4.9-12.5,11.7-12.5c5.6,0,9.3,3.5,9.3,9.4C78.9,30.5,78.8,31.6,78.6,32.5z M62.9,29.2h11.6
		c0-3.3-2.1-5.1-5.2-5.1C66.1,24.1,63.8,26,62.9,29.2z"/>
	<path class="st1" d="M101.1,18l-1.6,8.5h12.9l-0.8,4.4H98.7l-2.1,10.7h-4.9l5.3-28h19.4l-0.8,4.4H101.1z"/>
	<path class="st1" d="M138.4,20.3l-4.1,21.4h-4.5l0.5-2.4c-1.9,1.8-4.3,2.6-6.9,2.6c-4.4,0-7.3-2.6-7.3-7.2c0-0.8,0.1-1.6,0.3-2.6
		l2.2-11.8h4.7L121.1,32c-0.1,0.6-0.2,1.1-0.2,1.6c0,2.5,1.3,3.9,4,3.9c3.4,0,5.8-2,6.6-6.2l2.1-11.1H138.4z"/>
	<path class="st1" d="M147.1,34.5c0,0.3-0.1,0.6-0.1,0.9c0,1.5,0.7,2.4,2.4,2.4c0.9,0,1.9-0.3,2.7-0.8l0.8,3.7
		c-1.4,1-3.2,1.3-4.9,1.3c-3.5,0-5.8-2.1-5.8-5.7c0-0.5,0-1.1,0.2-1.7l1.9-10.1H141l0.8-4h3.3l0.9-4.9h4.7l-1,4.9h5.5l-0.8,4H149
		L147.1,34.5z"/>
	<path class="st1" d="M180,20.3L176,41.7h-4.5l0.5-2.4c-1.9,1.8-4.3,2.6-6.9,2.6c-4.4,0-7.3-2.6-7.3-7.2c0-0.8,0.1-1.6,0.3-2.6
		l2.2-11.8h4.7L162.7,32c-0.1,0.6-0.2,1.1-0.2,1.6c0,2.5,1.3,3.9,4,3.9c3.4,0,5.8-2,6.6-6.2l2.1-11.1H180z"/>
	<path class="st1" d="M197.8,20.1l-0.9,4.8c-0.4-0.1-0.7-0.1-1.2-0.1c-3.7,0-6.2,2-7,6.4l-2,10.5H182l4-21.4h4.5l-0.5,2.8
		C191.9,20.8,194.4,20.1,197.8,20.1z"/>
	<path class="st1" d="M218.3,32.5h-16.1c0.1,3.4,1.9,5.2,5.9,5.2c2.3,0,4.4-0.8,5.9-2.2l2,3.5c-2.1,2-5.2,3-8.3,3
		c-6.1,0-10-3.7-10-9.4c0-7.2,4.9-12.5,11.7-12.5c5.6,0,9.3,3.5,9.3,9.4C218.6,30.5,218.5,31.6,218.3,32.5z M202.6,29.2h11.6
		c0-3.3-2.1-5.1-5.2-5.1C205.8,24.1,203.5,26,202.6,29.2z"/>
	<path class="st0" d="M230.7,36.2c0-4.3,3-7.5,7.2-7.5c3.6,0,5.9,2.2,5.9,5.6c0,4.3-3,7.5-7.2,7.5C233,41.9,230.7,39.6,230.7,36.2z
		 M241,34.5c0-2-1.2-3.2-3.2-3.2c-2.4,0-4.2,2-4.2,4.8c0,2,1.2,3.2,3.2,3.2C239.2,39.3,241,37.3,241,34.5z"/>
	<path class="st0" d="M250.9,28.3l-0.1,0.7h3.3l-0.5,2.4h-3.3l-2,10.3h-2.8l2-10.3h-2L246,29h2l0.2-0.9c0.5-2.7,2.2-4.3,4.9-4.3
		c1,0,2,0.3,2.7,0.8l-1.2,2.2c-0.4-0.3-0.9-0.5-1.5-0.5C251.8,26.1,251.2,26.8,250.9,28.3z"/>
	<path class="st0" d="M18.8,51l-1.4,7.3h12.9l-0.8,4.3H16.6l-1.4,7.7h15l-0.8,4.4H9.4l5.3-28h19.4L33.3,51H18.8z"/>
	<path class="st0" d="M56.7,60.3c0,0.8-0.1,1.6-0.3,2.6l-2.2,11.8h-4.7L51.6,63c0.1-0.6,0.2-1.2,0.2-1.6c0-2.5-1.3-3.9-4.1-3.9
		c-3.5,0-5.9,2-6.6,6.2l-2.1,11.1h-4.7l4-21.4h4.5l-0.5,2.4c1.9-1.8,4.3-2.6,7-2.6C53.8,53.1,56.7,55.6,56.7,60.3z"/>
	<path class="st0" d="M66.7,67.5c0,0.3-0.1,0.6-0.1,0.9c0,1.5,0.7,2.4,2.4,2.4c0.9,0,1.9-0.3,2.7-0.8l0.8,3.7
		c-1.4,1-3.2,1.3-4.9,1.3c-3.5,0-5.8-2.1-5.8-5.7c0-0.5,0-1.1,0.2-1.7l1.9-10.1h-3.3l0.8-4h3.3l0.9-4.9h4.7l-1,4.9h5.5l-0.8,4h-5.5
		L66.7,67.5z"/>
	<path class="st0" d="M96.2,65.5H80.1c0.1,3.4,1.9,5.2,5.9,5.2c2.3,0,4.4-0.8,5.9-2.2l2,3.5c-2.1,2-5.2,3-8.3,3
		c-6.1,0-10-3.7-10-9.4c0-7.2,4.9-12.5,11.7-12.5c5.6,0,9.3,3.5,9.3,9.4C96.5,63.5,96.4,64.6,96.2,65.5z M80.5,62.2h11.6
		c0-3.3-2.1-5.1-5.2-5.1C83.7,57.1,81.4,59,80.5,62.2z"/>
	<path class="st0" d="M114.4,53.1l-0.9,4.8c-0.4-0.1-0.7-0.1-1.2-0.1c-3.7,0-6.2,2-7,6.4l-2,10.5h-4.7l4-21.4h4.5l-0.5,2.8
		C108.5,53.8,111,53.1,114.4,53.1z"/>
	<path class="st0" d="M121.6,67.5c0,0.3-0.1,0.6-0.1,0.9c0,1.5,0.7,2.4,2.4,2.4c0.9,0,1.9-0.3,2.7-0.8l0.8,3.7
		c-1.4,1-3.2,1.3-4.9,1.3c-3.5,0-5.8-2.1-5.8-5.7c0-0.5,0-1.1,0.2-1.7l1.9-10.1h-3.3l0.8-4h3.3l0.9-4.9h4.7l-1,4.9h5.5l-0.8,4h-5.5
		L121.6,67.5z"/>
	<path class="st0" d="M154,53.3l-4,21.4h-4.5l0.4-2.2c-1.7,1.6-4,2.5-6.6,2.5c-5,0-8.9-3.5-8.9-9.4c0-7.3,4.9-12.5,11.4-12.5
		c3.2,0,5.5,1.1,6.9,3.4l0.6-3.2H154z M147.5,62.7c0-3.3-1.9-5.4-5.4-5.4c-4,0-7,3.3-7,8c0,3.3,1.9,5.4,5.4,5.4
		C144.5,70.7,147.5,67.4,147.5,62.7z"/>
	<path class="st0" d="M160.1,53.3h4.7l-4,21.4h-4.7L160.1,53.3z M160.7,47c0-1.8,1.3-3.2,3.2-3.2c1.7,0,2.8,1.2,2.8,2.7
		c0,2-1.3,3.3-3.2,3.3C161.8,49.8,160.7,48.5,160.7,47z"/>
	<path class="st0" d="M189.3,60.3c0,0.8-0.1,1.6-0.3,2.6l-2.2,11.8h-4.7l2.2-11.7c0.1-0.6,0.2-1.2,0.2-1.6c0-2.5-1.3-3.9-4.1-3.9
		c-3.5,0-5.9,2-6.6,6.2l-2.1,11.1h-4.7l4-21.4h4.5l-0.5,2.4c1.9-1.8,4.3-2.6,7-2.6C186.4,53.1,189.3,55.6,189.3,60.3z"/>
	<path class="st0" d="M229.1,60.2c0,0.8-0.1,1.7-0.3,2.6l-2.2,11.8h-4.7l2.2-11.7c0.1-0.6,0.2-1.2,0.2-1.7c0-2.5-1.3-3.8-3.9-3.8
		c-3.3,0-5.4,2-6.2,6.1L212,74.7h-4.7l2.2-11.7c0.1-0.6,0.2-1.2,0.2-1.7c0-2.5-1.3-3.8-3.9-3.8c-3.3,0-5.4,2-6.2,6.2l-2.1,11.1h-4.7
		l4-21.4h4.5l-0.4,2.3c1.8-1.8,4.1-2.6,6.6-2.6c2.9,0,5.2,1.2,6.3,3.5c2.1-2.3,4.7-3.5,8-3.5C226.3,53.1,229.1,55.6,229.1,60.2z"/>
	<path class="st0" d="M253.6,65.5h-16.1c0.1,3.4,1.9,5.2,5.9,5.2c2.3,0,4.4-0.8,5.9-2.2l2,3.5c-2.1,2-5.2,3-8.3,3
		c-6.1,0-10-3.7-10-9.4c0-7.2,4.9-12.5,11.7-12.5c5.6,0,9.3,3.5,9.3,9.4C253.9,63.5,253.8,64.6,253.6,65.5z M237.9,62.2h11.6
		c0-3.3-2.1-5.1-5.2-5.1C241.1,57.1,238.8,59,237.9,62.2z"/>
	<path class="st0" d="M278.5,60.3c0,0.8-0.1,1.6-0.3,2.6L276,74.7h-4.7l2.2-11.7c0.1-0.6,0.2-1.2,0.2-1.6c0-2.5-1.3-3.9-4.1-3.9
		c-3.5,0-5.9,2-6.6,6.2l-2.1,11.1H256l4-21.4h4.5l-0.5,2.4c1.9-1.8,4.3-2.6,7-2.6C275.6,53.1,278.5,55.6,278.5,60.3z"/>
	<path class="st0" d="M288.6,67.5c0,0.3-0.1,0.6-0.1,0.9c0,1.5,0.7,2.4,2.4,2.4c0.9,0,1.9-0.3,2.7-0.8l0.8,3.7
		c-1.4,1-3.2,1.3-4.9,1.3c-3.5,0-5.8-2.1-5.8-5.7c0-0.5,0-1.1,0.2-1.7l1.9-10.1h-3.3l0.8-4h3.3l0.9-4.9h4.7l-1,4.9h5.5l-0.8,4h-5.5
		L288.6,67.5z"/>
</g>
</svg>
