<?xml version="1.0" encoding="utf-8"?>
<!-- Generator: Adobe Illustrator 24.0.0, SVG Export Plug-In . SVG Version: 6.00 Build 0)  -->
<svg version="1.1" id="Layer_1" xmlns="http://www.w3.org/2000/svg" xmlns:xlink="http://www.w3.org/1999/xlink" x="0px" y="0px"
	 viewBox="0 0 400 400" style="enable-background:new 0 0 400 400;" xml:space="preserve">
<style type="text/css">
	.st0{fill:#005388;}
	.st1{fill:#F5F6F6;}
</style>
<path class="st0" d="M354.5,280.3H45.2c-3.3,0-6-2.7-6-6v-49.4c0-3.3,2.7-6,6-6h309.2c3.3,0,6,2.7,6,6v49.4
	C360.5,277.6,357.8,280.3,354.5,280.3z"/>
<g>
	<path class="st1" d="M71.7,232.4h23.9v5.9H78.8v6.8h15.5v5.5H78.8v7.8H96v5.9H71.7V232.4z"/>
	<path class="st1" d="M106.4,252.2l-7.6-11h7.2l4.1,6l4-6h7l-7.6,10.8l8.5,12.3h-7.2l-4.8-7.3l-4.8,7.3h-7.1L106.4,252.2z"/>
	<path class="st1" d="M124.6,241.2h6v3h0.1c0.8-1.3,1.8-2.2,3-2.7c1.2-0.6,2.5-0.8,3.9-0.8c1.8,0,3.4,0.3,4.7,1
		c1.3,0.7,2.4,1.6,3.3,2.7c0.9,1.1,1.5,2.5,1.9,4c0.4,1.5,0.6,3.1,0.6,4.7c0,1.6-0.2,3-0.6,4.5c-0.4,1.4-1.1,2.7-1.9,3.8
		c-0.8,1.1-1.9,2-3.2,2.6s-2.8,1-4.4,1c-1.4,0-2.8-0.3-4-0.9c-1.2-0.6-2.2-1.4-3-2.6h-0.1v11h-6.4V241.2z M136.3,260.2
		c1,0,1.9-0.2,2.6-0.6c0.7-0.4,1.3-1,1.7-1.6c0.4-0.7,0.7-1.5,0.9-2.3c0.2-0.9,0.3-1.8,0.3-2.7c0-0.9-0.1-1.8-0.3-2.7
		s-0.5-1.7-1-2.4c-0.4-0.7-1-1.3-1.7-1.7c-0.7-0.4-1.6-0.6-2.6-0.6c-1,0-1.9,0.2-2.6,0.6c-0.7,0.4-1.3,1-1.7,1.7
		c-0.4,0.7-0.7,1.5-0.9,2.4s-0.3,1.8-0.3,2.8c0,0.9,0.1,1.8,0.3,2.7s0.5,1.7,0.9,2.3c0.4,0.7,1,1.2,1.7,1.6
		C134.4,260,135.3,260.2,136.3,260.2z"/>
	<path class="st1" d="M157.1,254.3c0.1,2.1,0.6,3.5,1.6,4.5c1,0.9,2.3,1.4,4.1,1.4c1.3,0,2.4-0.3,3.3-1c0.9-0.6,1.5-1.3,1.7-2h5.6
		c-0.9,2.8-2.3,4.8-4.1,5.9c-1.8,1.2-4.1,1.8-6.7,1.8c-1.8,0-3.5-0.3-4.9-0.9c-1.5-0.6-2.7-1.4-3.7-2.5c-1-1.1-1.8-2.4-2.3-3.8
		c-0.6-1.5-0.8-3.1-0.8-4.9c0-1.7,0.3-3.3,0.8-4.8c0.6-1.5,1.4-2.8,2.4-3.9c1-1.1,2.3-1.9,3.7-2.6c1.4-0.6,3-0.9,4.8-0.9
		c2,0,3.7,0.4,5.1,1.1c1.5,0.8,2.7,1.8,3.6,3.1c0.9,1.3,1.6,2.7,2,4.4s0.6,3.4,0.4,5.1H157.1z M167.4,250.3
		c-0.3-1.6-0.8-2.8-1.6-3.7c-0.8-0.8-1.9-1.3-3.5-1.3c-1,0-1.9,0.2-2.5,0.5s-1.2,0.8-1.6,1.3c-0.4,0.5-0.7,1-0.9,1.6
		c-0.2,0.6-0.3,1.1-0.3,1.5H167.4z"/>
	<path class="st1" d="M177.5,241.2h6v4.3h0.1c0.3-0.7,0.7-1.4,1.2-2s1.1-1.1,1.7-1.6c0.7-0.4,1.4-0.8,2.1-1c0.7-0.2,1.5-0.4,2.3-0.4
		c0.4,0,0.9,0.1,1.4,0.2v5.9c-0.3-0.1-0.7-0.1-1.1-0.2c-0.4,0-0.8-0.1-1.2-0.1c-1.2,0-2.1,0.2-3,0.6c-0.8,0.4-1.5,0.9-1.9,1.6
		s-0.8,1.5-1.1,2.3c-0.2,0.9-0.3,1.9-0.3,2.9v10.4h-6.4V241.2z"/>
	<path class="st1" d="M201.4,237.7H195v-5.2h6.4V237.7z M195,241.2h6.4v23.1H195V241.2z"/>
	<path class="st1" d="M211.5,254.3c0.1,2.1,0.6,3.5,1.6,4.5c1,0.9,2.3,1.4,4.1,1.4c1.3,0,2.4-0.3,3.3-1c0.9-0.6,1.5-1.3,1.7-2h5.6
		c-0.9,2.8-2.3,4.8-4.1,5.9c-1.8,1.2-4.1,1.8-6.7,1.8c-1.8,0-3.5-0.3-4.9-0.9c-1.5-0.6-2.7-1.4-3.7-2.5c-1-1.1-1.8-2.4-2.3-3.8
		c-0.6-1.5-0.8-3.1-0.8-4.9c0-1.7,0.3-3.3,0.8-4.8c0.6-1.5,1.4-2.8,2.4-3.9c1-1.1,2.3-1.9,3.7-2.6c1.4-0.6,3-0.9,4.8-0.9
		c2,0,3.7,0.4,5.1,1.1c1.5,0.8,2.7,1.8,3.6,3.1c0.9,1.3,1.6,2.7,2,4.4c0.4,1.6,0.6,3.4,0.4,5.1H211.5z M221.9,250.3
		c-0.3-1.6-0.8-2.8-1.6-3.7c-0.8-0.8-1.9-1.3-3.5-1.3c-1,0-1.9,0.2-2.5,0.5s-1.2,0.8-1.6,1.3s-0.7,1-0.8,1.6s-0.3,1.1-0.3,1.5H221.9
		z"/>
	<path class="st1" d="M232,241.2h6v3.2h0.1c0.8-1.3,1.8-2.3,3.1-2.9c1.3-0.6,2.6-0.9,3.9-0.9c1.7,0,3.1,0.2,4.2,0.7
		c1.1,0.5,1.9,1.1,2.6,1.9s1.1,1.8,1.3,3c0.3,1.2,0.4,2.5,0.4,3.9v14.2h-6.4v-13.1c0-1.9-0.3-3.3-0.9-4.3c-0.6-0.9-1.7-1.4-3.2-1.4
		c-1.7,0-3,0.5-3.8,1.5s-1.2,2.7-1.2,5.1v12.1H232V241.2z"/>
	<path class="st1" d="M274,249.4c-0.4-2.7-2-4-4.7-4c-1,0-1.9,0.2-2.5,0.7c-0.7,0.5-1.2,1.1-1.7,1.8s-0.7,1.5-0.9,2.4
		s-0.3,1.8-0.3,2.6c0,0.8,0.1,1.7,0.3,2.5c0.2,0.9,0.5,1.6,0.9,2.3c0.4,0.7,0.9,1.3,1.6,1.7s1.5,0.7,2.5,0.7c1.5,0,2.7-0.4,3.5-1.3
		c0.8-0.8,1.3-2,1.5-3.4h6.1c-0.4,3.1-1.6,5.4-3.6,7c-2,1.6-4.5,2.4-7.6,2.4c-1.7,0-3.3-0.3-4.8-0.9c-1.4-0.6-2.7-1.4-3.7-2.4
		c-1-1-1.8-2.3-2.4-3.7c-0.6-1.4-0.8-3-0.8-4.8c0-1.8,0.3-3.5,0.8-5c0.5-1.5,1.3-2.9,2.3-4c1-1.1,2.3-2,3.7-2.6
		c1.5-0.6,3.1-0.9,5-0.9c1.4,0,2.7,0.2,4,0.5c1.3,0.4,2.4,0.9,3.4,1.6s1.8,1.6,2.4,2.7c0.6,1.1,1,2.4,1.1,3.9H274z"/>
	<path class="st1" d="M289.1,254.3c0.1,2.1,0.6,3.5,1.6,4.5c1,0.9,2.3,1.4,4.1,1.4c1.3,0,2.4-0.3,3.3-1c0.9-0.6,1.5-1.3,1.7-2h5.6
		c-0.9,2.8-2.3,4.8-4.1,5.9c-1.8,1.2-4.1,1.8-6.7,1.8c-1.8,0-3.5-0.3-4.9-0.9c-1.5-0.6-2.7-1.4-3.7-2.5c-1-1.1-1.8-2.4-2.3-3.8
		c-0.6-1.5-0.8-3.1-0.8-4.9c0-1.7,0.3-3.3,0.8-4.8c0.6-1.5,1.4-2.8,2.4-3.9c1-1.1,2.3-1.9,3.7-2.6c1.4-0.6,3-0.9,4.8-0.9
		c2,0,3.7,0.4,5.1,1.1c1.5,0.8,2.7,1.8,3.6,3.1c0.9,1.3,1.6,2.7,2,4.4c0.4,1.6,0.6,3.4,0.4,5.1H289.1z M299.4,250.3
		c-0.3-1.6-0.8-2.8-1.6-3.7c-0.8-0.8-1.9-1.3-3.5-1.3c-1,0-1.9,0.2-2.5,0.5s-1.2,0.8-1.6,1.3s-0.7,1-0.8,1.6s-0.3,1.1-0.3,1.5H299.4
		z"/>
	<path class="st1" d="M314.2,256.8c0,0.7,0.1,1.3,0.4,1.8s0.6,0.9,1.1,1.2c0.4,0.3,1,0.5,1.5,0.7c0.6,0.1,1.2,0.2,1.8,0.2
		c0.4,0,0.9-0.1,1.4-0.2s0.9-0.3,1.3-0.5s0.7-0.5,1-0.9c0.3-0.4,0.4-0.8,0.4-1.4c0-1-0.6-1.7-1.9-2.1c-1.3-0.5-3-1-5.3-1.4
		c-0.9-0.2-1.8-0.5-2.7-0.7c-0.9-0.3-1.7-0.7-2.3-1.1c-0.7-0.5-1.2-1-1.7-1.7c-0.4-0.7-0.6-1.6-0.6-2.6c0-1.5,0.3-2.7,0.9-3.7
		c0.6-1,1.3-1.7,2.3-2.3s2-0.9,3.2-1.2c1.2-0.2,2.4-0.3,3.7-0.3s2.5,0.1,3.6,0.4s2.2,0.6,3.2,1.2c0.9,0.6,1.7,1.3,2.3,2.3
		c0.6,0.9,1,2.1,1.1,3.6h-6c-0.1-1.2-0.6-2-1.4-2.5c-0.8-0.4-1.8-0.6-3-0.6c-0.4,0-0.7,0-1.2,0.1c-0.4,0-0.8,0.1-1.1,0.3
		s-0.6,0.4-0.9,0.6s-0.4,0.7-0.4,1.1c0,0.6,0.2,1,0.6,1.4c0.4,0.4,1,0.6,1.6,0.9s1.4,0.4,2.3,0.6c0.9,0.2,1.7,0.4,2.6,0.6
		c0.9,0.2,1.8,0.5,2.7,0.8c0.9,0.3,1.7,0.7,2.3,1.2c0.7,0.5,1.2,1.1,1.7,1.8c0.4,0.7,0.6,1.6,0.6,2.7c0,1.5-0.3,2.8-0.9,3.8
		c-0.6,1-1.4,1.9-2.4,2.5c-1,0.6-2.1,1.1-3.4,1.3c-1.3,0.3-2.6,0.4-3.9,0.4c-1.3,0-2.7-0.1-3.9-0.4c-1.3-0.3-2.4-0.7-3.4-1.3
		s-1.8-1.5-2.5-2.5c-0.6-1-1-2.3-1.1-3.9H314.2z"/>
</g>
<g>
	<path class="st0" d="M83.3,134.3c-0.6-2.8-1.8-5.2-3.8-7.3c-2-2.1-4.5-3.1-7.4-3.1c-3,0-5.6,0.9-7.6,2.7c-2,1.8-3.7,4-4.8,6.6
		s-2.1,5.4-2.6,8.3c-0.6,3-0.9,5.6-1,7.9l0.2,0.2c2.3-3.4,5-5.7,8.1-7.2c3.1-1.4,6.7-2.2,10.8-2.2c3.6,0,7.1,0.8,10.5,2.3
		c3.4,1.6,6.3,3.7,8.7,6.3c2.2,2.6,3.9,5.5,4.9,8.7c1,3.3,1.6,6.6,1.6,9.9c0,4.3-0.7,8.3-2.1,12s-3.4,6.9-6,9.7s-5.7,4.9-9.3,6.5
		c-3.6,1.6-7.6,2.3-12,2.3c-6.3,0-11.5-1.3-15.7-3.8c-4.1-2.5-7.5-5.8-9.9-9.9c-2.5-4.1-4.2-8.7-5.1-13.8c-1-5.1-1.4-10.4-1.4-15.7
		c0-5.2,0.6-10.4,1.8-15.6c1.2-5.2,3.1-9.9,5.7-14.1c2.6-4.2,6-7.6,10.2-10.2s9.2-3.9,15.2-3.9c3.6,0,6.9,0.5,10.1,1.6
		c3.1,1,5.9,2.5,8.3,4.5c2.4,2,4.3,4.4,5.9,7.2s2.5,6.2,3,9.9H83.3z M71.1,153.1c-2.2,0-4.2,0.4-5.9,1.3c-1.7,0.8-3.1,2-4.2,3.4
		c-1.1,1.4-2,3.1-2.5,5c-0.6,1.9-0.8,3.9-0.8,5.9c0,1.9,0.3,3.8,0.9,5.7c0.6,1.9,1.5,3.6,2.6,5c1.2,1.5,2.6,2.7,4.2,3.5
		c1.7,0.9,3.6,1.3,5.7,1.3c2.1,0,3.9-0.4,5.4-1.3c1.6-0.9,2.9-2,4-3.5c1.1-1.4,2-3.1,2.5-4.9c0.6-1.8,0.8-3.7,0.8-5.6
		c0-2-0.3-3.9-0.8-5.8c-0.5-1.9-1.3-3.6-2.3-5c-1-1.5-2.4-2.7-4-3.6S73.3,153.1,71.1,153.1z"/>
	<path class="st0" d="M179.8,196.6h-16l-12.4-50h-0.2l-12.2,50h-16.3l-19.4-73.4h16.1l11.6,50h0.2l12.8-50h15.1l12.5,50.6h0.2
		l12-50.6h15.8L179.8,196.6z"/>
	<path class="st0" d="M200.4,159.8c0.2-3.4,1.1-6.3,2.6-8.5c1.5-2.3,3.4-4.1,5.8-5.4c2.3-1.4,5-2.3,7.9-2.9c2.9-0.6,5.8-0.9,8.8-0.9
		c2.7,0,5.4,0.2,8.1,0.6c2.7,0.4,5.2,1.1,7.5,2.2c2.3,1.1,4.1,2.6,5.6,4.6c1.4,2,2.2,4.5,2.2,7.8v27.7c0,2.4,0.1,4.7,0.4,6.9
		c0.3,2.2,0.8,3.8,1.4,4.9h-14.8c-0.3-0.8-0.5-1.7-0.7-2.5c-0.2-0.9-0.3-1.7-0.4-2.6c-2.3,2.4-5.1,4.1-8.2,5c-3.2,1-6.4,1.4-9.7,1.4
		c-2.5,0-4.9-0.3-7.1-0.9c-2.2-0.6-4.1-1.6-5.8-2.9c-1.6-1.3-2.9-2.9-3.9-4.9c-0.9-2-1.4-4.4-1.4-7.1c0-3,0.5-5.5,1.6-7.5
		c1.1-2,2.4-3.5,4.1-4.7c1.7-1.2,3.6-2,5.8-2.6s4.3-1,6.5-1.4c2.2-0.3,4.4-0.6,6.5-0.8s4-0.5,5.7-0.9c1.6-0.4,2.9-1,3.9-1.8
		c1-0.8,1.4-1.9,1.3-3.4c0-1.6-0.3-2.8-0.8-3.8c-0.5-0.9-1.2-1.6-2.1-2.2c-0.9-0.5-1.9-0.9-3-1c-1.1-0.2-2.3-0.3-3.7-0.3
		c-2.9,0-5.1,0.6-6.8,1.9c-1.6,1.2-2.6,3.3-2.9,6.2H200.4z M234.1,170.6c-0.6,0.5-1.4,1-2.3,1.3c-0.9,0.3-1.9,0.6-3,0.8
		c-1.1,0.2-2.2,0.4-3.3,0.5c-1.2,0.1-2.3,0.3-3.5,0.5c-1.1,0.2-2.2,0.5-3.2,0.8s-2,0.8-2.8,1.4c-0.8,0.6-1.4,1.3-1.9,2.2
		c-0.5,0.9-0.7,2-0.7,3.4c0,1.3,0.2,2.4,0.7,3.3c0.5,0.9,1.1,1.6,2,2.1c0.8,0.5,1.8,0.9,2.9,1.1s2.2,0.3,3.4,0.3
		c2.9,0,5.1-0.5,6.7-1.4c1.6-1,2.7-2.1,3.5-3.4c0.8-1.3,1.2-2.7,1.4-4.1s0.3-2.5,0.3-3.3V170.6z"/>
	<path class="st0" d="M286.8,196.6h-16.2l-18.2-53.2h15.3l11.2,36.3h0.2l11.2-36.3h14.5L286.8,196.6z"/>
	<path class="st0" d="M319.9,173.5c0.2,4.7,1.4,8.2,3.6,10.3c2.2,2.1,5.3,3.2,9.5,3.2c2.9,0,5.5-0.7,7.6-2.2c2.1-1.5,3.4-3,3.9-4.7
		h12.9c-2.1,6.4-5.2,10.9-9.5,13.7c-4.3,2.7-9.4,4.1-15.4,4.1c-4.2,0-8-0.7-11.3-2c-3.4-1.3-6.2-3.2-8.5-5.7
		c-2.3-2.5-4.1-5.4-5.4-8.8c-1.3-3.4-1.9-7.2-1.9-11.3c0-4,0.7-7.7,2-11.1c1.3-3.4,3.2-6.4,5.6-8.9c2.4-2.5,5.3-4.5,8.6-5.9
		c3.3-1.4,7-2.2,11.1-2.2c4.5,0,8.5,0.9,11.8,2.6s6.1,4.1,8.3,7c2.2,2.9,3.7,6.3,4.7,10.1c1,3.8,1.3,7.7,1,11.8H319.9z M343.7,164.3
		c-0.7-3.7-1.9-6.5-3.7-8.4s-4.4-2.9-8-2.9c-2.3,0-4.3,0.4-5.8,1.2c-1.5,0.8-2.8,1.8-3.7,2.9s-1.6,2.4-2,3.7
		c-0.4,1.3-0.6,2.5-0.7,3.5H343.7z"/>
</g>
</svg>
